HIERARCHY
ROOT Hips
{
	OFFSET 0.000001 -0.000078 -0.000001
	CHANNELS 6 Xposition Yposition Zposition Zrotation Xrotation Yrotation
	JOINT RHip
	{
		OFFSET 0.050097 0.050444 -0.047671
		CHANNELS 3 Zrotation Xrotation Yrotation
		JOINT RKnee
		{
			OFFSET -0.017253 0.187945 0.175403
			CHANNELS 3 Zrotation Xrotation Yrotation
			JOINT RFoot
			{
				OFFSET -0.230387 0.222280 0.059118
				CHANNELS 3 Zrotation Xrotation Yrotation
				End Site
				{
					OFFSET 0 0 0
				}
			}
		}
	}
	JOINT LHip
	{
		OFFSET -0.050105 -0.050313 0.047687
		CHANNELS 3 Zrotation Xrotation Yrotation
		JOINT LKnee
		{
			OFFSET -0.129789 0.151561 0.243446
			CHANNELS 3 Zrotation Xrotation Yrotation
			JOINT LFoot
			{
				OFFSET -0.258887 0.174976 0.107370
				CHANNELS 3 Zrotation Xrotation Yrotation
				End Site
				{
					OFFSET 0 0 0
				}
			}
		}
	}
	JOINT Spine
	{
		OFFSET 0.183735 0.026649 -0.091683
		CHANNELS 3 Zrotation Xrotation Yrotation
		JOINT Thorax
		{
			OFFSET 0.210026 0.044161 -0.091663
			CHANNELS 3 Zrotation Xrotation Yrotation
			JOINT Neck
			{
				OFFSET 0.051641 0.036557 -0.009011
				CHANNELS 3 Zrotation Xrotation Yrotation
				JOINT Head
				{
					OFFSET 0.044949 -0.017222 -0.062039
					CHANNELS 3 Zrotation Xrotation Yrotation
					End Site
					{
						OFFSET 0 0 0
					}
				}
			}
			JOINT LShoulder
			{
				OFFSET -0.091086 -0.089711 0.048138
				CHANNELS 3 Zrotation Xrotation Yrotation
				JOINT LElbow
				{
					OFFSET -0.122210 -0.138091 0.067119
					CHANNELS 3 Zrotation Xrotation Yrotation
					JOINT LWrist
					{
						OFFSET 0.062386 -0.015589 0.000972
						CHANNELS 3 Zrotation Xrotation Yrotation
						End Site
						{
							OFFSET 0 0 0
						}
					}
				}
			}
			JOINT RShoulder
			{
				OFFSET 0.028054 0.105408 -0.029813
				CHANNELS 3 Zrotation Xrotation Yrotation
				JOINT RElbow
				{
					OFFSET 0.055869 0.174563 0.005723
					CHANNELS 3 Zrotation Xrotation Yrotation
					JOINT RWrist
					{
						OFFSET 0.070520 0.136213 0.012735
						CHANNELS 3 Zrotation Xrotation Yrotation
						End Site
						{
							OFFSET 0 0 0
						}
					}
				}
			}
		}
	}
}
MOTION
Frames: 16
Frame Time: 0.020000
0.000001 -0.000078 -0.000001 0.000000 0.000000 0.000000 0.000000 0.000000 0.000000 0.000000 0.000000 0.000000 0.000000 0.000000 0.000000 0.000000 0.000000 0.000000 0.000000 0.000000 0.000000 0.000000 0.000000 0.000000 0.000000 0.000000 0.000000 0.000000 0.000000 0.000000 0.000000 0.000000 0.000000 0.000000 0.000000 0.000000 0.000000 0.000000 0.000000 0.000000 0.000000 0.000000 0.000000 0.000000 0.000000 0.000000 0.000000 0.000000 0.000000 0.000000 0.000000 0.000000 0.000000 0.000000
0.000001 -0.000083 -0.000002 -1.118219 -1.087698 0.034718 -1.118219 -1.087698 0.034718 -0.309195 -0.521087 0.241050 1.158407 1.546209 1.328861 -1.121449 -1.091557 0.035467 0.732046 2.945164 1.432513 4.357205 3.450290 2.769308 0.650466 0.167829 1.035923 1.528445 0.304213 1.618254 0.394524 -4.014824 5.773995 1.958135 2.855691 0.518834 -0.901059 -0.228690 -0.251798 1.478644 1.349409 -0.450407 2.939622 3.000000 13.583943 -1.416271 1.369414 -0.781918 -2.449014 -1.897567 0.732853 1.592874 -3.456146 1.576955
-0.000000 -0.000090 -0.000003 -1.111911 1.388060 -2.438090 -1.111911 1.388060 -2.438090 2.016359 2.021065 -1.691337 0.170569 3.814138 3.954581 -1.118601 1.375475 -2.439107 3.338039 10.417567 4.688155 10.319183 9.132966 9.786073 1.322428 0.250904 2.596260 2.475455 0.099030 4.226165 -0.275719 -10.460664 15.081294 6.404167 9.511170 4.184428 -1.673457 -1.266549 0.415101 3.758756 0.852769 1.066025 6.637002 4.757009 25.201765 -5.259895 1.099070 -1.849171 -3.105799 -0.155538 0.157205 3.151509 -5.947406 2.573763
0.000001 -0.000097 -0.000004 -2.056234 3.013228 -4.952757 -2.056234 3.013228 -4.952757 2.810055 2.835450 -2.352474 -1.621444 3.372530 3.852264 -2.067576 2.992952 -4.958319 7.365680 19.383789 9.184149 14.534328 12.476367 14.914602 2.426830 0.636144 3.413150 3.800454 0.143426 6.210737 0.378109 -14.103942 20.385230 7.742465 11.560497 6.808550 -2.965834 -1.856972 0.354269 5.195042 1.333986 1.344999 12.998292 4.860792 36.784353 -8.652378 0.559888 -2.693251 -3.337890 -3.461902 1.329719 4.645359 -4.226327 1.545103
0.000006 -0.000101 -0.000005 -3.666866 4.175709 -7.716785 -3.666866 4.175709 -7.716785 5.171131 0.548955 -4.792683 -3.530605 3.154802 4.012259 -3.683191 4.147937 -7.728543 11.957359 26.087985 11.552137 15.105841 15.588092 21.905413 3.003585 0.813270 3.939712 5.570429 0.458027 7.583908 5.505101 -14.099076 19.749579 5.704407 8.820369 4.963162 -3.593645 -2.018829 0.192312 7.422591 3.277732 0.862381 18.736009 3.360174 42.401699 -10.128892 0.743004 -3.204792 -1.993610 -6.056706 2.119008 -0.088318 -2.537102 1.321662
0.000009 -0.000101 -0.000006 -4.360440 4.785870 -9.026831 -4.360440 4.785870 -9.026831 9.539730 -4.496952 -9.417406 -2.612727 2.885419 3.559022 -4.378834 4.751551 -9.038499 16.707829 31.007116 11.298771 13.079576 18.434295 28.904076 4.021747 0.933816 5.849839 6.872425 0.468985 9.314007 10.929970 -15.367873 20.702184 4.171895 7.587807 7.607748 -4.767552 -2.682282 0.291865 3.939733 0.010387 1.850260 22.277667 2.124213 45.829503 -11.903735 1.453694 -4.012789 -1.845969 -7.265328 2.513470 -1.898600 -4.246736 2.459742
0.000004 -0.000099 -0.000007 -8.289704 3.443866 -11.999157 -8.289704 3.443866 -11.999157 14.502539 -3.718370 -14.087324 -5.034692 1.777700 2.980202 -8.306365 3.400279 -12.009132 21.854955 36.850694 15.022091 6.443634 23.147031 38.981739 5.562111 0.993580 9.029547 8.123794 0.238186 11.713153 14.477822 -20.072025 25.674557 6.159721 9.831442 7.343485 -9.392555 -4.772008 0.211247 -2.282662 -4.628589 3.199617 28.187631 -0.487617 51.881440 -17.485054 -0.497693 -4.982169 -4.424600 -10.806902 4.068930 3.163232 -9.412223 4.232514
-0.000002 -0.000092 -0.000008 -12.365229 3.503524 -16.801364 -12.365229 3.503524 -16.801364 18.286360 -6.954312 -18.057789 -6.155487 0.554326 2.070467 -12.369040 3.458751 -16.810532 26.155714 41.429745 22.521986 -0.503049 27.783733 46.536058 7.003869 0.931761 12.202003 10.110059 0.376347 13.446046 19.352433 -23.697197 28.555407 10.483768 14.843324 8.418107 -12.017999 -3.298644 -3.161060 -13.118266 -5.625759 -0.885163 33.581249 -3.546639 57.292968 -25.120478 1.270518 -8.294371 -7.027525 -11.919893 4.870244 3.915343 -15.694181 7.045667
-0.000008 -0.000092 -0.000009 -16.350888 1.486510 -19.640028 -16.350888 1.486510 -19.640028 21.226260 -3.591473 -20.568089 -9.935906 0.096307 2.514240 -16.351214 1.437378 -19.650223 31.871362 45.636897 30.605504 -10.212118 30.359387 48.202498 11.394606 1.414605 17.048597 13.146188 -0.081405 17.820804 25.921281 -29.611667 32.670573 15.242184 19.993415 11.828769 -13.649721 -1.784538 -6.123821 -27.618372 -11.186376 -1.361020 33.511054 -3.179419 51.947565 -33.796135 1.960549 -11.823162 -9.172776 -13.644913 5.912488 2.868740 -20.860788 9.803888
-0.000011 -0.000092 -0.000009 -18.447176 2.298790 -23.275207 -18.447176 2.298790 -23.275207 23.995564 2.427459 -22.590491 -12.678674 0.670610 3.596559 -18.446138 2.244133 -23.289782 38.162629 48.898339 37.545434 -17.419563 30.449026 46.473883 15.087790 1.472515 21.337044 15.911399 -0.639943 21.634660 34.078341 -35.748891 35.425551 20.367737 24.668550 16.471257 -14.349635 0.305318 -9.238996 -37.208999 -12.837784 -4.631648 43.257891 -7.989382 51.072508 -39.672857 2.014188 -14.179283 -12.920819 -15.338082 7.334951 8.100715 -26.857515 10.798022
-0.000010 -0.000093 -0.000009 -19.791247 2.807387 -25.648287 -19.791247 2.807387 -25.648287 25.558953 9.125036 -23.266578 -17.928614 0.769927 4.718071 -19.790876 2.749524 -25.668355 41.564357 50.313063 40.383121 -21.813934 28.395100 42.890061 16.618978 0.845576 25.113730 19.000628 -1.062253 24.755095 37.153913 -39.974566 37.812254 24.957644 28.129222 20.753245 -15.759659 1.814903 -12.171390 -44.188463 -14.595262 -6.330005 53.984959 -10.248493 39.299645 -43.553374 2.735671 -16.291924 -16.143532 -13.353008 7.011176 14.417697 -30.248074 9.841904
-0.000009 -0.000089 -0.000008 -21.675987 2.385583 -27.838668 -21.675987 2.385583 -27.838668 23.532776 22.248976 -19.273359 -20.292898 3.427078 7.119147 -21.666574 2.334748 -27.861566 42.055905 50.273326 46.132879 -21.197588 27.145631 41.430462 17.428897 0.546036 26.868689 22.902978 -2.082926 29.291331 13.245022 -45.703493 56.949291 33.614878 33.714722 26.320757 -18.176451 1.461256 -13.617614 -49.146942 -14.030629 -12.169493 76.360192 -19.687627 39.833135 -48.733227 2.606720 -18.523263 -15.702535 -14.998136 7.722154 18.780910 -27.391725 7.268699
-0.000012 -0.000090 -0.000007 -22.872409 1.235574 -28.304534 -22.872409 1.235574 -28.304534 21.429045 37.125121 -14.008493 -24.675503 6.692437 10.002137 -22.859594 1.187805 -28.328566 42.471329 50.292982 49.241618 -22.839290 26.320065 40.186734 17.171350 -0.678130 30.946274 27.089761 -2.198375 31.133688 4.458548 -46.254028 64.245683 40.345085 37.737642 28.829222 -20.855632 0.956729 -15.154911 -45.283816 -10.022941 -17.123060 105.235039 -31.298020 36.571151 -50.748711 1.675883 -18.754026 -20.181847 -16.666777 9.502891 25.309069 -24.238344 4.230032
-0.000010 -0.000085 -0.000009 -25.266685 2.936088 -33.729582 -25.266685 2.936088 -33.729582 21.943178 64.343753 -0.357429 -19.474107 9.428335 11.555292 -25.247021 2.888340 -33.760472 43.428240 50.365213 54.670893 -18.461896 23.088723 36.595740 17.611370 -1.713690 34.892528 26.731333 -3.113243 33.087881 -13.585216 -39.906241 70.720370 47.974767 40.502063 35.412251 -24.023981 0.670036 -17.529704 -49.142560 -9.198726 -23.215128 143.991040 1.037173 -2.592451 -52.500419 7.721749 -24.247788 -18.822772 -15.442996 8.572183 20.982171 -16.975900 3.335484
-0.000008 -0.000082 -0.000009 -28.596384 1.527301 -37.456508 -28.596384 1.527301 -37.456508 25.641464 73.964184 11.622438 -20.770588 14.127146 15.208430 -28.572109 1.471743 -37.486525 23.997753 43.108854 47.544351 -17.301128 18.182367 30.361354 18.994186 -1.882052 36.233302 31.112915 -3.677662 35.453938 -16.950862 -38.403431 71.561069 49.540846 39.832235 40.001374 -26.398245 0.151927 -18.984335 -56.813481 -13.959417 -21.652503 156.655699 -4.194037 0.136387 -56.201837 5.853235 -24.816718 -16.873932 -11.187322 6.077426 12.927403 -11.816326 3.351936
-0.000013 -0.000092 -0.000008 -32.880091 -3.418015 -39.009185 -32.880091 -3.418015 -39.009185 28.318624 77.017859 18.588008 -19.129671 18.349649 18.568603 -32.860161 -3.496222 -39.032784 7.462793 33.455730 40.935945 -10.465661 20.332076 33.136359 18.974336 -2.579964 38.593779 31.667163 -4.461576 37.183262 -22.742590 -39.427083 80.218610 49.234475 41.077884 35.925471 -27.822147 -0.649694 -19.148353 -57.664066 -15.791805 -17.480353 134.521404 -30.764899 21.272212 -54.286735 7.165895 -24.801694 -21.646580 -13.635420 8.177447 12.794482 -7.524543 1.743067
